<svg viewBox="0 0 512 512" xmlns="http://www.w3.org/2000/svg">
  <defs>
    <g id="leaf">
      <path d="M 0,0 Q -2,-12 -3,-28 Q -4,-50 -2,-72 Q 0,-92 0,-100 Q 0,-92 2,-72 Q 4,-50 3,-28 Q 2,-12 0,0 Z"/>
      <path d="M 0,0 Q -2,-10 -3,-22 Q -4,-38 -2,-55 Q 0,-72 0,-78 Q 0,-72 2,-55 Q 4,-38 3,-22 Q 2,-10 0,0 Z" transform="rotate(32)"/>
      <path d="M 0,0 Q -2,-10 -3,-22 Q -4,-38 -2,-55 Q 0,-72 0,-78 Q 0,-72 2,-55 Q 4,-38 3,-22 Q 2,-10 0,0 Z" transform="rotate(-32)"/>
      <path d="M 0,0 Q -2,-8 -2,-16 Q -3,-28 -2,-40 Q 0,-54 0,-58 Q 0,-54 2,-40 Q 3,-28 2,-16 Q 2,-8 0,0 Z" transform="rotate(58)"/>
      <path d="M 0,0 Q -2,-8 -2,-16 Q -3,-28 -2,-40 Q 0,-54 0,-58 Q 0,-54 2,-40 Q 3,-28 2,-16 Q 2,-8 0,0 Z" transform="rotate(-58)"/>
      <path d="M 0,0 Q -1,-5 -2,-11 Q -2,-19 -1,-27 Q 0,-35 0,-38 Q 0,-35 1,-27 Q 2,-19 2,-11 Q 1,-5 0,0 Z" transform="rotate(82)"/>
      <path d="M 0,0 Q -1,-5 -2,-11 Q -2,-19 -1,-27 Q 0,-35 0,-38 Q 0,-35 1,-27 Q 2,-19 2,-11 Q 1,-5 0,0 Z" transform="rotate(-82)"/>
    </g>
  </defs>

  <!-- forest-green rounded square background -->
  <rect x="0" y="0" width="512" height="512" rx="96" ry="96" fill="#143526"/>

  <!-- cream disc -->
  <circle cx="256" cy="256" r="170" fill="#f2e8d0"/>

  <!-- two overlapping cannabis leaves -->
  <use href="#leaf" fill="#17402f" transform="translate(236,276) rotate(-30) scale(1.35)"/>
  <use href="#leaf" fill="#17402f" transform="translate(276,236) rotate(150) scale(1.35)"/>
</svg>
